<svg height="512pt" viewBox="0 0 512.00853 512" width="512pt" xmlns="http://www.w3.org/2000/svg"><path d="m497.835938 120.222656-106.054688-106.054687c-9.136719-9.136719-21.324219-14.16406275-34.320312-14.16406275-12.996094 0-25.179688 5.02734375-34.3125 14.16406275l-.828126.828125c-12.578124 12.578125-16.605468 30.355468-12.457031 46.449218l-211.398437 110.199219c-2.0625 1.074219-3.601563 2.953125-4.25 5.1875l-93.496094 322.398438 158.496094-158.5c-9.292969-11.917969-14.378906-26.46875-14.378906-41.820313 0-18.234375 7.101562-35.378906 19.992187-48.273437 12.894531-12.894531 30.039063-19.992188 48.273437-19.992188 18.238282 0 35.378907 7.097657 48.273438 19.992188s19.996094 30.039062 19.996094 48.273437-7.101563 35.378906-19.996094 48.273438c-12.894531 12.894531-30.035156 19.992187-48.273438 19.992187-15.351562 0-29.898437-5.085937-41.820312-14.378906l-158.5 158.5 322.398438-93.5c2.246093-.648437 4.113281-2.183594 5.1875-4.25l110.203124-211.394531c3.984376 1.023437 8.027344 1.730468 12.125 1.730468 12.433594 0 24.855469-4.734374 34.320313-14.199218l.828125-.828125c9.136719-9.128907 14.164062-21.324219 14.164062-34.3125s-5.042968-25.183594-14.171874-34.320313zm-12.066407 56.574219-.828125.828125c-9.269531 9.269531-22.921875 11.511719-34.339844 6.777344-.28125-.164063-.484374-.429688-.792968-.554688-3.710938-1.613281-6.996094-3.839844-9.789063-6.632812l-105.230469-105.230469c-2.792968-2.792969-5.019531-6.078125-6.632812-9.789063-.136719-.308593-.398438-.519531-.5625-.800781-4.726562-11.417969-2.480469-25.0625 6.785156-34.332031l.828125-.828125c5.914063-5.914063 13.816407-9.164063 22.246094-9.164063s16.339844 3.25 22.253906 9.164063l106.054688 106.054687c5.910156 5.914063 9.164062 13.8125 9.164062 22.253907 0 8.4375-3.253906 16.339843-9.15625 22.253906zm0 0"/><path d="m8.535156 102.402344h42.664063v42.667968c0 4.710938 3.824219 8.535157 8.535156 8.535157h34.132813c4.710937 0 8.53125-3.824219 8.53125-8.535157v-42.667968h42.667968c4.710938 0 8.535156-3.820313 8.535156-8.53125v-34.132813c0-4.710937-3.824218-8.535156-8.535156-8.535156h-42.667968v-42.664063c0-4.710937-3.820313-8.53515575-8.53125-8.53515575h-34.132813c-4.710937 0-8.535156 3.82421875-8.535156 8.53515575v42.664063h-42.664063c-4.710937 0-8.535156 3.824219-8.535156 8.535156v34.132813c0 4.710937 3.824219 8.53125 8.535156 8.53125zm0 0"/><path d="m213.085938 350.109375c13.679687 0 26.53125-5.324219 36.207031-14.992187 9.675781-9.667969 14.992187-22.527344 14.992187-36.207032 0-13.679687-5.324218-26.53125-14.992187-36.207031s-22.527344-14.992187-36.207031-14.992187c-13.679688 0-26.53125 5.324218-36.207032 14.992187-9.675781 9.667969-14.992187 22.527344-14.992187 36.207031 0 13.679688 5.324219 26.53125 14.992187 36.207032 9.667969 9.675781 22.535156 14.992187 36.207032 14.992187zm0 0"/></svg>