<svg id="Layer_1" enable-background="new 0 0 511.449 511.449" height="512" viewBox="0 0 511.449 511.449" width="512" xmlns="http://www.w3.org/2000/svg"><path d="m436.508 74.941c-99.912-99.914-261.639-99.93-361.566 0-99.914 99.912-99.93 261.639 0 361.566 99.912 99.914 261.639 99.93 361.566 0 99.914-99.911 99.929-261.638 0-361.566zm-266.116 74.451h170.666c11.598 0 21 9.402 21 21s-9.402 21-21 21h-170.666c-11.598 0-21-9.402-21-21s9.402-21 21-21zm85.333 212.666h-85.333c-11.598 0-21-9.402-21-21s9.402-21 21-21h85.333c11.598 0 21 9.402 21 21s-9.403 21-21 21zm21.333-85.333h-106.666c-11.598 0-21-9.402-21-21s9.402-21 21-21h106.666c11.598 0 21 9.402 21 21s-9.403 21-21 21zm119.786 80.731-53.333 42.667c-13.586 10.867-34.119 1.316-34.119-16.398v-85.333c0-17.589 20.401-27.373 34.118-16.398l53.333 42.666c10.504 8.403 10.499 24.397.001 32.796z"/></svg>