<?xml version="1.0"?>
<svg xmlns="http://www.w3.org/2000/svg" id="Layer_1" data-name="Layer 1" viewBox="0 0 150 150" width="512" height="512"><circle cx="75" cy="75" r="64" fill="#334d5c"/><path d="M84.23,69.8v-6l-6.13-.81a18.37,18.37,0,0,0-2.62-6.32l3.76-4.91L75,47.44,70.06,51.2a18.6,18.6,0,0,0-6.32-2.62l-.81-6.13h-6l-.81,6.13a18.32,18.32,0,0,0-6.32,2.62l-4.91-3.76-4.28,4.27,3.77,4.91a18.37,18.37,0,0,0-2.62,6.32l-6.14.81v6l6.14.8a18,18,0,0,0,2.63,6.32l-3.78,4.91,4.28,4.28,4.92-3.78A17.83,17.83,0,0,0,56.08,85l.81,6.14h6L63.74,85a18.38,18.38,0,0,0,6.32-2.61h0L75,86.11l4.27-4.28-3.76-4.91A18.13,18.13,0,0,0,78.1,70.6Zm-34.57-3A10.25,10.25,0,1,1,59.9,77,10.26,10.26,0,0,1,49.66,66.78Z" fill="#e1e6e9"/><path d="M59.91,52.69A14.08,14.08,0,1,0,74,66.78,14.08,14.08,0,0,0,59.91,52.69ZM59.9,77A10.25,10.25,0,1,1,70.16,66.78,10.24,10.24,0,0,1,59.9,77Z" fill="#d5d6db"/><path d="M114.42,91.26V86.64l-4.7-.61a14,14,0,0,0-2-4.84l2.88-3.75-3.27-3.27-3.75,2.88a14.11,14.11,0,0,0-4.84-2l-.61-4.69H93.5L92.89,75a14.11,14.11,0,0,0-4.84,2L84.3,74.17,81,77.44l2.88,3.75a14,14,0,0,0-2,4.84l-4.69.61v4.62l4.69.62a13.68,13.68,0,0,0,2,4.83L81,100.47l3.27,3.27,3.76-2.89a13.6,13.6,0,0,0,4.83,2l.61,4.69h4.63l.61-4.69a14.07,14.07,0,0,0,4.84-2h0l3.75,2.88,3.27-3.27-2.88-3.76a13.85,13.85,0,0,0,2-4.83ZM88,89a7.84,7.84,0,1,1,7.83,7.83A7.84,7.84,0,0,1,88,89Z" fill="#27a2db"/><path d="M95.82,78.19A10.77,10.77,0,1,0,106.58,89,10.76,10.76,0,0,0,95.82,78.19Zm0,18.6A7.84,7.84,0,1,1,103.65,89,7.83,7.83,0,0,1,95.81,96.79Z" fill="#2d93ba"/><path d="M108.65,51.73l-1.27-3-3.24.88A10.12,10.12,0,0,0,101.5,47l.86-3.25-3-1.25-1.68,2.91a10.12,10.12,0,0,0-3.72,0l-1.68-2.91-3,1.27L90.09,47a10,10,0,0,0-2.62,2.64l-3.25-.86-1.25,3,2.91,1.68a10.12,10.12,0,0,0,0,3.72L83,58.86l1.27,3L87.49,61a10,10,0,0,0,2.64,2.62l-.86,3.25,3,1.25L94,65.22a9.9,9.9,0,0,0,3.72,0l1.68,2.91,3-1.27-.88-3.24A10.08,10.08,0,0,0,104.16,61h0l3.24.86,1.25-3-2.91-1.68a10.12,10.12,0,0,0,0-3.72Zm-18,5.71a5.57,5.57,0,1,1,7.28,3A5.56,5.56,0,0,1,90.68,57.44Z" fill="#44c4a1"/><path d="M92.87,48.23a7.65,7.65,0,1,0,10,4.12A7.66,7.66,0,0,0,92.87,48.23ZM98,60.44a5.57,5.57,0,1,1,3-7.29A5.57,5.57,0,0,1,98,60.44Z" fill="#3ea69b"/></svg>
