<svg id="Capa_1" enable-background="new 0 0 512 512" height="512" viewBox="0 0 512 512" width="512" xmlns="http://www.w3.org/2000/svg"><g id="Speedometer_2_"><g><path d="m256 346.5c-24.814 0-45-20.186-45-45 0-17.344 23.423-99.434 30.601-124.175 3.691-12.832 25.107-12.832 28.799 0 7.177 24.741 30.6 106.831 30.6 124.175 0 24.814-20.186 45-45 45z"/></g><g><path d="m226 376.5h60v120h-60z"/><path d="m346 376.5h-30v120h30c33.091 0 60-26.909 60-60s-26.909-60-60-60z"/><path d="m196 376.5h-30c-33.091 0-60 26.909-60 60s26.909 60 60 60h30z"/></g><g><path d="m218.758 142.38c7.203-2.086 14.601-3.505 22.242-4.363v-46.517c0-8.291 6.709-15 15-15s15 6.709 15 15v46.516c7.641.859 15.038 2.278 22.242 4.363l46.214-111.57c-26.193-9.111-54.198-15.309-83.456-15.309-29.257 0-57.263 6.198-83.456 15.31z"/><path d="m320.946 153.89c6.667 3.699 12.935 7.87 18.851 12.603l32.878-32.878c5.859-5.859 15.352-5.859 21.211 0s5.859 15.352 0 21.211l-32.878 32.878c4.733 5.918 8.906 12.186 12.605 18.853l111.537-46.201c-25.01-51.348-66.652-92.994-118.002-118.004z"/><path d="m138.39 206.554c3.699-6.667 7.87-12.935 12.603-18.851l-32.878-32.878c-5.859-5.859-5.859-15.352 0-21.211s15.352-5.859 21.211 0l32.878 32.878c5.916-4.733 12.184-8.904 18.851-12.603l-46.202-111.538c-51.348 25.01-92.992 66.654-118.002 118.002z"/><path d="m385.122 234.26c2.086 7.203 3.503 14.599 4.362 22.24h46.516c8.291 0 15 6.709 15 15s-6.709 15-15 15h-46.448c-1.384 12.654-3.896 24.985-8.762 36.46-1.553 3.677-1.582 7.822-.073 11.528 1.523 3.691 4.438 6.636 8.13 8.174l83.101 34.497c3.647 1.505 7.778 1.542 11.514 0 3.677-1.538 6.606-4.468 8.115-8.159 12.89-31.392 20.423-64.189 20.423-97.5 0-29.257-6.2-57.261-15.31-83.454z"/><path d="m122.448 286.5h-46.448c-8.291 0-15-6.709-15-15s6.709-15 15-15h46.516c.859-7.641 2.278-15.038 4.363-22.242l-111.569-46.214c-9.112 26.193-15.31 54.198-15.31 83.456 0 33.311 7.533 66.108 20.424 97.5 1.509 3.691 4.438 6.621 8.115 8.159 3.677 1.523 7.808 1.523 11.514 0l83.101-34.497c3.691-1.538 6.606-4.482 8.13-8.174 1.509-3.706 1.479-7.852-.073-11.528-4.866-11.475-7.378-23.806-8.763-36.46z"/></g></g></svg>